<?xml version="1.0" encoding="UTF-8"?>
<!DOCTYPE svg PUBLIC "-//W3C//DTD SVG 1.1//EN" "http://www.w3.org/Graphics/SVG/1.1/DTD/svg11.dtd">
<!-- Creator: CorelDRAW 2020 (64 Bit) -->
<svg xmlns="http://www.w3.org/2000/svg" xml:space="preserve" width="290.673mm" height="192.346mm" version="1.1" style="shape-rendering:geometricPrecision; text-rendering:geometricPrecision; image-rendering:optimizeQuality; fill-rule:evenodd; clip-rule:evenodd"
viewBox="0 0 29134.23 19278.91"
 xmlns:xlink="http://www.w3.org/1999/xlink"
 xmlns:xodm="http://www.corel.com/coreldraw/odm/2003">
 <defs>
  <style type="text/css">
   <![CDATA[
    .fil4 {fill:#E6E7E8;fill-rule:nonzero}
    .fil1 {fill:#263138;fill-rule:nonzero}
    .fil7 {fill:#445964;fill-rule:nonzero}
    .fil6 {fill:#848688;fill-rule:nonzero}
    .fil5 {fill:#D2D3D5;fill-rule:nonzero}
    .fil3 {fill:#DFDFDF;fill-rule:nonzero}
    .fil14 {fill:#E8505B;fill-rule:nonzero}
    .fil11 {fill:#EB996E;fill-rule:nonzero}
    .fil9 {fill:#EBEBEB;fill-rule:nonzero}
    .fil0 {fill:#F1F1F2;fill-rule:nonzero}
    .fil2 {fill:#F4F4F4;fill-rule:nonzero}
    .fil8 {fill:#F9F9F9;fill-rule:nonzero}
    .fil10 {fill:#FF6D05;fill-rule:nonzero}
    .fil12 {fill:#FFBD9C;fill-rule:nonzero}
    .fil13 {fill:black;fill-rule:nonzero;fill-opacity:0.200000}
    .fil15 {fill:black;fill-rule:nonzero;fill-opacity:0.301961}
    .fil16 {fill:#FEFEFE;fill-rule:nonzero;fill-opacity:0.701961}
   ]]>
  </style>
 </defs>
 <g id="Camada_x0020_1">
  <metadata id="CorelCorpID_0Corel-Layer"/>
  <path class="fil0" d="M1288.89 8764.54c1299.47,-1231.46 3374.14,-1780.14 5226.94,-1382.33 1168.24,250.84 2202.76,835.1 3300.86,1267.2 1098.1,432.09 2372.55,711.49 3491.53,323.33 1098.99,-381.23 1814.03,-1326.76 2276.27,-2285.64 462.25,-958.89 748.07,-1989.52 1352.22,-2884.85 1039.73,-1540.8 3032.86,-2543.22 5065.06,-2547.37 36.29,-0.08 72.97,0.12 109.98,0.57 3700.69,45.36 6709.07,2627.49 6965.57,5885.58 122.59,1557.18 134.5,3767.04 -890.5,5228.4 0,0 -3238.96,5560.14 -11447.83,6676.12 -7380.03,1003.31 -11930.67,-1553.65 -11930.67,-1553.65l169.93 34.95c-1805.86,-414.79 -3564.96,-2150.54 -4547.62,-3982.78 -815.7,-1520.95 -441.18,-3548.09 858.28,-4779.53l-0.01 0z"/>
  <g id="_1703139880640">
   <path class="fil1" d="M21149.24 0.02c0.73,0.46 -3.72,9.3 -12.87,25.76 -10.76,18.67 -24.36,42.27 -41.08,71.3 -35.87,61.8 -89.61,150.14 -156.73,258.82 -134.54,217.22 -328.17,512.44 -547.48,834.41 -219.35,322.08 -415.07,615.3 -553.32,829.93 -67.62,105.3 -122.97,191.5 -163.37,254.38 -18.33,28.01 -33.26,50.78 -45.06,68.81 -10.53,15.58 -16.42,23.53 -17.15,23.1 -0.74,-0.46 3.71,-9.31 12.86,-25.77 10.75,-18.66 24.36,-42.27 41.06,-71.29 35.88,-61.8 89.61,-150.11 156.73,-258.81 134.54,-217.23 328.21,-512.45 547.58,-834.54 219.28,-321.96 414.97,-615.17 553.23,-829.79 67.62,-105.29 122.97,-191.5 163.37,-254.4 18.34,-28.01 33.26,-50.8 45.06,-68.81 10.53,-15.59 16.43,-23.55 17.17,-23.1z"/>
  </g>
  <g id="_1811733923904">
   <path class="fil2" d="M8287.32 3501.9l4486.07 0c222.06,0 402.07,181.15 402.07,404.62l0 2208.04c0,223.44 -180.01,404.58 -402.07,404.58l-3806.74 0c-222.05,0 -402.09,-181.14 -402.09,-404.58l0 -2333.67 -277.23 -278.99 -0.01 0z"/>
   <g id="_1703143550816">
    <path class="fil3" d="M10887.96 5648.48l0 1415.74c0,256.14 -206.33,463.79 -460.89,463.79l-5044.6 0c-254.57,0 -460.93,-207.66 -460.93,-463.79l0 -1196.22 -628.03 -664.02 6132.12 -19.29c255.1,-0.81 462.33,207.09 462.33,463.78l0 0.01z"/>
    <g>
     <polygon class="fil2" points="5665.17,6042.4 10242.82,6021.14 10242.34,5879.54 5664.7,5900.83 "/>
    </g>
    <g>
     <polygon class="fil2" points="5665.17,6508.19 10242.82,6486.91 10242.34,6345.33 5664.7,6366.64 "/>
    </g>
    <g>
     <polygon class="fil2" points="5665.17,6962.23 7476.42,6953.26 7475.83,6811.68 5664.61,6820.64 "/>
    </g>
   </g>
   <g>
    <path class="fil4" d="M5204.98 9502.85l0 2134.53c0,386.2 311.11,699.28 694.91,699.28l7605.92 0c383.81,0 694.93,-313.08 694.93,-699.28l0 -1803.58 946.88 -1001.17 -9245.56 -29.08c-384.62,-1.23 -697.08,312.22 -697.08,699.29l0 0.01z"/>
    <g>
     <polygon class="fil3" points="13079.56,10096.77 6177.68,10064.69 6178.42,9851.22 13080.27,9883.31 "/>
    </g>
    <g>
     <polygon class="fil3" points="13079.56,10799.07 6177.68,10766.98 6178.42,10553.51 13080.27,10585.61 "/>
    </g>
   </g>
   <g id="_1703143538144">
    <path class="fil2" d="M17570.06 16276.66l0 2134.55c0,386.2 311.09,699.28 694.9,699.28l7605.91 0c383.81,0 694.93,-313.08 694.93,-699.28l0 -1803.62 946.9 -1001.15 -9245.58 -29.06c-384.61,-1.23 -697.06,312.21 -697.06,699.27l0 0.01z"/>
    <g>
     <polygon class="fil3" points="25477.67,16815.15 18575.8,16783.09 18576.53,16569.62 25478.39,16601.69 "/>
    </g>
    <g>
     <polygon class="fil3" points="25477.67,17517.45 18575.8,17485.38 18576.53,17271.91 25478.39,17304 "/>
    </g>
    <g>
     <polygon class="fil3" points="25477.67,18202 22746.81,18188.47 22747.67,17974.99 25478.51,17988.52 "/>
    </g>
   </g>
   <g id="_1703143531328">
    <path class="fil3" d="M23587.93 9571.87l0 1415.72c0,256.14 -206.33,463.79 -460.89,463.79l-5044.6 0c-254.56,0 -460.93,-207.66 -460.93,-463.79l0 -1196.2 -628.03 -664.01 6132.11 -19.28c255.11,-0.82 462.34,207.06 462.34,463.77z"/>
    <g>
     <polygon class="fil2" points="18365.13,9965.8 22942.81,9944.53 22942.31,9802.95 18364.68,9824.24 "/>
    </g>
    <g>
     <polygon class="fil2" points="18365.13,10431.57 22942.81,10410.3 22942.31,10268.72 18364.68,10290 "/>
    </g>
    <g>
     <polygon class="fil2" points="18365.13,10885.6 20176.4,10876.64 20175.81,10735.06 18364.59,10744.02 "/>
    </g>
   </g>
   <g>
    <g id="_1703139911840">
     <g>
      <path class="fil5" d="M17816.61 17044.44c-1179.96,-1156.18 -1199.35,-2944.67 -892.35,-4498.86 51.2,-259.43 67.47,-539.15 228.05,-747.76 160.61,-208.5 473.78,-317.55 688.01,-169.37 177.71,122.88 224.94,362.09 302.32,566.19 102.92,271.61 283.03,511.98 512.93,684.57 151.07,113.4 346.74,199.77 524.41,136.18 243.82,-87.33 320.77,-393.86 361.38,-653.65 75.65,-484.12 151.39,-968.2 227.02,-1452.21 40.61,-259.71 82.95,-524.78 203.22,-757.83 120.24,-233.04 334.68,-432.6 591.18,-461.35 256.61,-28.69 536.73,163.58 547.23,426.09 4.34,109.23 -34.89,215.41 -45.25,324.25 -10.38,108.92 20.13,236.31 116.9,283.07 97.95,47.37 213.09,-9.2 302.52,-72.44 308.77,-218.12 544.28,-525.86 767.65,-833.67 223.38,-307.84 443.12,-624.43 731.08,-870.4 287.97,-245.98 658.81,-417.37 1031.5,-377.59 372.75,39.8 728.83,333.99 762.79,714.16 34.07,381.22 -238.4,717.4 -517.33,975.47 -413.84,382.94 -882.1,704.71 -1385.37,952.06 -90.73,44.67 -189.01,92.87 -235.73,183.86 -84.15,163.75 50.77,362.39 211.22,447.21 181.72,96.09 393.53,110.36 590.7,167.29 197.16,56.94 400.46,182.09 445.38,385.83 62.49,282.6 -203.16,524.28 -449.66,670.6 -493.56,293.07 -1036.34,499.35 -1597.09,607.23 -201.03,38.59 -410.61,66.95 -585.37,175.83 -174.77,108.98 -305.04,326.93 -242.39,524.89 62.73,198.23 290.4,295.78 495.11,291.39 204.62,-4.32 400.17,-83.59 601.19,-124.27 376.25,-76.2 829.85,23.75 1006.69,369.33 116.19,227.13 83.44,511.36 -31.32,740.39 -114.66,229.06 -301.54,411.84 -495.22,576.85 -677,576.93 -1491.87,996.95 -2360.57,1148.35 -868.57,151.39 -1642.88,103.53 -2410.84,-331.7z"/>
     </g>
    </g>
    <g id="_1703139911936">
     <g>
      <g>
       <g>
        <path class="fil6" d="M18668.8 16680.23c100.33,-389.69 262.56,-842.7 491.54,-1322.09 228.04,-479.92 521.39,-985.13 846.25,-1502.92 81.69,-129.14 162.41,-256.75 241.95,-382.5 79.67,-125.34 158.71,-249.68 243.47,-366.45 168.54,-234.37 348.34,-446.77 525.27,-642.99 176.91,-196.41 351.9,-376.28 516.71,-543.27 165.28,-166.69 322.22,-319.16 471.15,-451.95 297.16,-266.83 561.67,-453.08 748.41,-573.5 93.29,-60.54 167.2,-105.08 217.7,-134.6 24.26,-13.97 43.3,-24.94 57.62,-33.21 13.08,-7.3 19.89,-10.83 20.15,-10.36 0.3,0.47 -5.99,4.9 -18.53,13.12 -13.95,8.92 -32.5,20.76 -56.08,35.84 -49.39,31.25 -122.23,77.42 -214.43,139.4 -184.48,123.38 -446.05,311.74 -740.51,579.82 -147.6,133.49 -303.31,286.48 -467.5,453.75 -163.94,167.67 -338,347.92 -513.92,544.31 -175.87,196.29 -354.49,408.33 -521.77,641.63 -84.12,116.26 -162.32,239.57 -242.13,365.28 -79.47,125.71 -160.07,253.27 -241.7,382.36 -324.56,517.41 -617.92,1020.94 -846.74,1498.74 -229.6,477.23 -393.28,927.61 -495.93,1315.19l-20.96 -5.62z"/>
       </g>
      </g>
     </g>
     <g>
      <g>
       <g>
        <path class="fil6" d="M20500.87 13106.48c-2.09,-0.01 -3.6,-26.12 -4.58,-73.38 -1.21,-47.24 -0.69,-115.61 1.15,-200.11 3.57,-168.91 16.4,-402.02 31.5,-658.95 15.14,-257.09 24.65,-489.69 25.64,-658.19 0.72,-84.24 0.66,-152.45 -0.01,-199.59 -0.4,-47.18 0.39,-73.33 2.5,-73.49 2.12,-0.13 5.37,25.8 9.42,72.9 4.34,47.07 7.75,115.41 9.74,199.92 4.6,169.06 -1.49,402.79 -16.66,660.1 -15.55,253.52 -29.66,482.88 -40.41,658.1 -4.38,79.19 -8,145.94 -10.93,199.52 -2.74,47.08 -5.21,73.2 -7.37,73.18z"/>
       </g>
      </g>
     </g>
     <g>
      <g>
       <g>
        <path class="fil6" d="M22683.98 13057.12c-0.29,2.12 -31,0.67 -86.16,-3.75 -55.15,-4.07 -134.91,-10.43 -233.68,-15.07 -197.44,-10.91 -470.7,-16.34 -772.45,-9.04 -301.84,7.82 -574.68,26.59 -771.62,45.92 -98.6,8.96 -178.17,18.36 -233.23,24.55 -55.04,6.38 -85.61,8.9 -85.98,6.78 -0.31,-2.15 29.71,-8.72 84.36,-18.84 54.65,-9.85 134.02,-22.63 232.6,-34.47 196.94,-25.01 470.51,-47.32 773.26,-55.23 302.61,-7.25 576.88,1.66 774.54,18.28 98.93,7.52 178.64,17.19 233.54,25.08 54.9,8.14 85.06,13.62 84.81,15.81z"/>
       </g>
      </g>
     </g>
     <g>
      <g>
       <g>
        <path class="fil6" d="M19192.75 15323.22c-1.04,0.26 -4.54,-9.49 -10.29,-28.39 -6.42,-22.46 -14.22,-49.87 -23.68,-83.09 -20.25,-72.24 -46.82,-177.54 -77.96,-308.09 -62.47,-261.03 -137.5,-624.33 -214.88,-1026.34 -77.46,-402.2 -149.01,-765.71 -205.97,-1027.68 -28.06,-127.41 -51.2,-232.2 -68.37,-310.11 -7.27,-33.78 -13.23,-61.62 -18.11,-84.51 -3.82,-19.36 -5.34,-29.68 -4.3,-30 1.02,-0.22 4.52,9.53 10.28,28.45 6.4,22.45 14.23,49.83 23.68,83.03 20.25,72.24 46.83,177.53 77.99,308.08 62.45,261.03 137.47,624.34 214.87,1026.54 77.45,402.07 149,765.55 205.95,1027.55 28.12,127.36 51.18,232.2 68.36,310.05 7.28,33.79 13.23,61.68 18.14,84.51 3.8,19.41 5.33,29.73 4.29,30.01l0 -0.01z"/>
       </g>
      </g>
     </g>
     <g>
      <g>
       <g>
        <path class="fil6" d="M22156.16 14874.05c0.09,1.06 -10.17,3.44 -29.82,6.99 -23.22,3.79 -51.71,8.44 -86.24,14.09 -79.52,12.19 -186.87,28.67 -317.42,48.63 -268.04,41.14 -637.55,102.21 -1045.78,170.25 -408.37,68.13 -778.83,125.82 -1047.76,161.37 -134.47,17.83 -243.42,31.13 -318.87,38.77 -34.86,3.33 -63.6,6.04 -86.96,8.31 -19.92,1.56 -30.45,1.82 -30.56,0.74 -0.11,-1.06 10.17,-3.44 29.83,-7.03 23.15,-3.76 51.65,-8.4 86.23,-14.05 79.51,-12.21 186.8,-28.62 317.37,-48.65 268.03,-41.08 637.6,-102.19 1045.96,-170.28 408.22,-68.08 778.64,-125.78 1047.6,-161.32 134.46,-17.84 243.4,-31.13 318.91,-38.79 34.85,-3.31 63.54,-6.09 86.95,-8.29 19.93,-1.55 30.41,-1.82 30.57,-0.74l-0.01 0z"/>
       </g>
      </g>
     </g>
    </g>
   </g>
   <g id="_1703139858944">
    <path class="fil7" d="M11775.88 6524.21c-137.67,-107.42 -199.18,-297.63 -170.42,-470.51 28.76,-172.89 139.64,-325.91 283.33,-425.02 66.44,-45.83 148.73,-82.18 226.01,-59.3 72.24,21.36 122.54,92.06 137.16,166.38 14.61,74.34 -1.17,151.53 -25.8,223.11 -84.47,245.56 -211,467.59 -450.28,565.33z"/>
    <path class="fil7" d="M11550.05 6943.66c-271.31,-249.07 -666.98,-353.31 -1024.77,-269.95 -91.1,21.24 -193.64,69.66 -208.66,162.55 -15.01,93.04 67.57,171.94 148.61,219.22 337.19,196.71 793.94,159.73 1095.56,-88.71l-10.73 -23.11z"/>
    <path class="fil7" d="M10242.86 5001.69c150.38,-41.51 315.21,-4.15 448.31,77.64 133.08,81.78 237.21,204.47 320.61,337.07 161.37,256.52 218.22,601.26 225.38,904.78 -334.78,-13.61 -620.88,-278.42 -757.61,-421.91 -216.12,-226.81 -469.87,-768.82 -236.68,-897.58z"/>
    <g>
     <path class="fil1" d="M12056.4 7401.96c-19.62,-35.85 -51.61,-61.16 -83.51,-127 -62.87,-131.47 -147.55,-318.41 -188.58,-540.94 -40.88,-222.87 -13.17,-433.15 41.82,-570.57 26.81,-69.06 56.84,-121.29 80.97,-154.64 23.98,-33.52 39.86,-49.86 41.37,-48.65 5.8,3.78 -53.45,74.47 -99.87,211.46 -47.69,135.63 -70.76,339.2 -31.02,556.35 39.98,217.24 119.9,403.41 177.02,536.93l61.81 137.06z"/>
    </g>
    <g>
     <path class="fil1" d="M12059.57 7406.03c-44.81,-58.14 -103.52,-134.34 -174.34,-226.27 -146.72,-191.38 -350.02,-455.25 -578.41,-743.75 -228.39,-288.32 -438.59,-546.65 -591.23,-733.27 -73.24,-90 -133.92,-164.6 -180.26,-221.53 -42.25,-52.6 -64.78,-82.41 -63,-83.94 1.76,-1.54 27.67,25.35 73,75.31 45.39,49.91 109.86,123.22 188.54,214.64 157.42,182.81 370.76,438.99 599.39,727.59 228.61,288.8 429.15,555.27 571.09,750.48 70.99,97.6 127.59,177.19 165.81,232.85l-10.58 7.88z"/>
    </g>
    <g>
     <path class="fil1" d="M10734.32 6873.05c-0.52,-2.29 20.08,-8.53 58.08,-17.87 18.94,-5.05 42.32,-10.26 69.95,-13.45 27.55,-3.54 58.89,-9.45 93.97,-10.14 69.93,-5.5 153.83,-2.58 245.94,9.41 91.79,13.91 191.6,38.05 291.9,76.56 99.84,39.82 189.64,89.9 266.65,142.07 75.94,53.83 139.76,108.71 187.63,160.34 25.41,24.36 44.51,50 62.44,71.33 18.24,21.16 31.96,40.89 42.54,57.48 21.74,32.75 18.64,48.06 16.73,49.38 -5.36,3.91 -39.46,-65.06 -138.58,-161.18 -49.08,-48.48 -113.07,-100.2 -188.17,-151.36 -76.18,-49.52 -164.13,-97.49 -261.51,-136.35 -97.83,-37.56 -194.87,-61.97 -284.24,-77.28 -89.7,-13.35 -171.6,-18.74 -240.35,-16.37 -137.6,3.45 -221.64,23.94 -222.98,17.43z"/>
    </g>
   </g>
   <g id="_1703139875264">
    <g>
     <g>
      <g>
       <g>
        <path class="fil1" d="M18204.37 18306.58l-5143.11 -23.92c-618.57,-2.86 -1117.78,-509.68 -1115.17,-1132.15l54.51 -12975.12c2.63,-622.81 506.58,-1125.48 1125.49,-1122.63l5143.13 23.89c618.58,2.88 1117.76,509.7 1115.14,1132.16l-54.5 12975.12c-2.63,622.83 -506.58,1125.49 -1125.5,1122.62l0.01 0.03z"/>
       </g>
       <g>
        <path class="fil8" d="M18261.9 3524.48l-997.16 -4.63c-133.72,-0.6 -242.64,112.96 -243.2,253.6l-0.8 182.01c-0.54,140.68 -109.47,254.24 -243.17,253.6l-1943.68 -9.04c-133.72,-0.6 -241.64,-115.15 -241.07,-255.84l0.78 -182.02c0.58,-140.66 -107.36,-255.24 -241.09,-255.86l-350.71 -1.62 -872.74 -4.06c-433.44,-2 -786.4,350.04 -788.23,786.24l-53.2 12664.62c-1.84,436 347.78,790.93 781,792.96l5132.85 23.83c433.42,2.01 786.36,-350.03 788.22,-786.22l53.21 -12664.7c1.8,-435.94 -347.78,-790.86 -780.99,-792.89l-0.01 0.01z"/>
       </g>
      </g>
     </g>
     <g>
      <path class="fil7" d="M15357.02 16555.78c-0.22,50.55 -47.81,91.32 -106.29,91.07 -58.48,-0.3 -105.71,-41.52 -105.52,-92.07 0.23,-50.54 47.8,-91.35 106.27,-91.06 58.5,0.26 105.73,41.48 105.54,92.06z"/>
     </g>
     <g>
      <path class="fil7" d="M15685.18 16557.3c-0.22,50.54 -47.81,91.32 -106.28,91.07 -58.48,-0.27 -105.71,-41.48 -105.52,-92.07 0.2,-50.54 47.8,-91.33 106.27,-91.07 58.5,0.27 105.72,41.47 105.53,92.07z"/>
     </g>
     <g>
      <path class="fil7" d="M16013.32 16558.8c-0.2,50.55 -47.8,91.36 -106.27,91.06 -58.5,-0.26 -105.72,-41.47 -105.53,-92.05 0.22,-50.55 47.81,-91.33 106.29,-91.08 58.47,0.28 105.73,41.48 105.51,92.07z"/>
     </g>
    </g>
   </g>
   <g>
    <polygon class="fil3" points="13079.56,11483.59 10348.7,11470.08 10349.56,11256.6 13080.4,11270.15 "/>
   </g>
   <path class="fil9" d="M13874.97 9629.9c83.62,12.01 5129.05,1007.8 5129.05,1007.8l0 -1007.8 -5129.05 0z"/>
   <path class="fil9" d="M12287.61 16028.48c0,0 5488.45,-781.38 5440.69,-757.33 -47.79,24.04 -5440.69,0 -5440.69,0l0 757.33z"/>
   <g id="_1703139882464">
    <path class="fil1" d="M18661.46 1241.83c6.4,0 11.59,279.23 11.59,623.6 0,344.49 -5.18,623.66 -11.59,623.66 -6.4,0 -11.6,-279.17 -11.6,-623.66 0,-344.37 5.19,-623.6 11.6,-623.6z"/>
   </g>
   <g id="_1703139883136">
    <path class="fil1" d="M20857.67 2677.09c2.58,5.91 -249.19,123.43 -562.26,262.47 -313.19,139.09 -569.1,247.03 -571.69,241.14 -2.58,-5.9 249.13,-123.4 562.32,-262.49 313.09,-139.05 569.04,-247.02 571.63,-241.12z"/>
   </g>
   <path class="fil10" d="M23881.02 5775.95l-10038.79 0c-216.82,0 -392.59,176.87 -392.59,395.07l0 3133.55c0,218.19 175.77,395.06 392.59,395.06l747.88 0c60.24,327.23 130.72,740.1 130.72,740.1l676.92 -740.1 8483.27 0c216.81,0 392.59,-176.87 392.59,-395.06l0 -3133.55c0,-218.2 -175.78,-395.07 -392.59,-395.07z"/>
   <g id="_1703139881984">
    <g>
     <path class="fil2" d="M19739.21 7475.72c0,6.42 -1194.82,11.65 -2668.36,11.65 -1474.04,0 -2668.62,-5.22 -2668.62,-11.65 0,-6.45 1194.56,-11.68 2668.62,-11.68 1473.51,0 2668.36,5.22 2668.36,11.68z"/>
    </g>
    <g>
     <path class="fil2" d="M19739.21 6994.04c0,6.45 -1194.82,11.68 -2668.36,11.68 -1474.04,0 -2668.62,-5.22 -2668.62,-11.68 0,-6.44 1194.56,-11.66 2668.62,-11.66 1473.51,0 2668.36,5.21 2668.36,11.66z"/>
    </g>
    <g>
     <path class="fil2" d="M19739.21 7952.09c0,6.44 -1194.82,11.68 -2668.36,11.68 -1474.04,0 -2668.62,-5.23 -2668.62,-11.68 0,-6.44 1194.56,-11.66 2668.62,-11.66 1473.51,0 2668.36,5.21 2668.36,11.66z"/>
    </g>
    <g>
     <path class="fil2" d="M17898.03 8445.54c0,6.44 -782.62,11.66 -1747.81,11.66 -965.54,0 -1747.99,-5.21 -1747.99,-11.66 0,-6.45 782.45,-11.68 1747.99,-11.68 965.18,0 1747.81,5.22 1747.81,11.68z"/>
    </g>
   </g>
   <g id="_1703139885488">
    <path class="fil7" d="M19345.24 11409.58l-10121.21 0c-151.69,0 -274.65,123.73 -274.65,276.38l0 3315.26c0,152.66 122.96,276.4 274.65,276.4l7350.78 0 669.18 731.63c0,0 70.21,-411.22 129.31,-731.63l1971.95 0c151.7,0 274.67,-123.74 274.67,-276.4l0 -3315.26c0,-152.65 -122.97,-276.38 -274.67,-276.38z"/>
    <g>
     <g>
      <path class="fil2" d="M18948.21 13119.12c0,6.45 -1194.81,11.68 -2668.36,11.68 -1474.04,0 -2668.62,-5.22 -2668.62,-11.68 0,-6.42 1194.56,-11.66 2668.62,-11.66 1473.53,0 2668.36,5.23 2668.36,11.66z"/>
     </g>
     <g>
      <path class="fil2" d="M18948.21 12637.47c0,6.43 -1194.81,11.65 -2668.36,11.65 -1474.04,0 -2668.62,-5.21 -2668.62,-11.65 0,-6.45 1194.56,-11.68 2668.62,-11.68 1473.53,0 2668.36,5.22 2668.36,11.68z"/>
     </g>
     <g>
      <path class="fil2" d="M18948.21 13595.51c0,6.44 -1194.81,11.68 -2668.36,11.68 -1474.04,0 -2668.62,-5.23 -2668.62,-11.68 0,-6.44 1194.56,-11.66 2668.62,-11.66 1473.53,0 2668.36,5.21 2668.36,11.66z"/>
     </g>
     <g>
      <path class="fil2" d="M17107.04 14088.96c0,6.44 -782.62,11.68 -1747.8,11.68 -965.53,0 -1748,-5.23 -1748,-11.68 0,-6.44 782.48,-11.67 1748,-11.67 965.18,0 1747.8,5.22 1747.8,11.67z"/>
     </g>
    </g>
   </g>
   <g id="_1703139890576">
    <g>
     <path class="fil1" d="M21357.45 4446.85c5.95,-82.34 -67.03,-195.95 -134.69,-261.21 -67.66,-65.27 -109.55,-153.84 -74.29,-285.49 27.24,-101.75 91.37,-94.15 116.69,-153.94 18.75,-44.28 10.87,-94.79 14.74,-142.76 13.3,-164.76 193.42,-293.88 352.51,-252.72 44.78,-156.69 189.97,-279.06 351.11,-295.94 161.14,-16.88 328.28,72.78 404.17,216.83 91.95,-48.13 207.86,-46.47 298.43,4.24 90.58,50.73 153.06,148.98 160.89,252.97 89.65,-65.17 227.21,-40.06 298.15,45.33 70.94,85.36 75.29,216.07 21.46,313.27 -53.85,97.21 -158.3,160.48 -267.62,177.37 -109.31,16.9 -222.33,-9.1 -321.31,-58.74 -98.98,-49.66 -185.14,-121.94 -263.61,-200.38l-956.63 641.17z"/>
     <path class="fil3" d="M24013.16 7701.69c0,1046.21 -863.04,1894.34 -1927.67,1894.34 -1064.62,0 -1927.67,-848.13 -1927.67,-1894.34 0,-1046.21 863.02,-1894.33 1927.67,-1894.33 1064.61,0 1927.67,848.12 1927.67,1894.33z"/>
     <g>
      <g>
       <path class="fil11" d="M24020.99 7703.3l-213.34 -550.55 -764.71 483.46 681.38 1057.34c0,0 277.17,-362.28 296.65,-990.24l0.01 0z"/>
       <g>
        <g>
         <g>
          <g>
           <g>
            <g>
             <g>
              <path class="fil12" d="M21909.95 6511.26c274.78,0.42 501.53,-214.38 515.11,-488.1 11.29,-227.98 20.76,-447.54 20.76,-447.54 0,0 420.69,-30.67 459.48,-444.5 38.8,-413.81 44.12,-1370.85 44.12,-1370.85 -464.06,-245.14 -1024.7,-220.64 -1465.3,64.04l-40.01 25.86 -48.59 2141.6c-3.13,285.64 228,519.04 514.43,519.49z"/>
             </g>
             <g>
              <g>
               <path class="fil1" d="M22151.34 4396.86c31.71,10.49 48.9,44.66 38.39,76.3 -10.5,31.62 -44.76,48.75 -76.47,38.27 -31.73,-10.5 -48.93,-44.66 -38.41,-76.31 10.52,-31.62 44.76,-48.75 76.49,-38.26z"/>
              </g>
              <g>
               <g>
                <path class="fil1" d="M22266.61 4418.39c-6.97,6.79 -45.93,-27.01 -103.2,-30.69 -57.24,-4.54 -100.62,23.33 -106.52,15.61 -2.91,-3.45 4.37,-16.01 23.33,-28.68 18.63,-12.62 49.98,-23.99 85.68,-21.42 35.68,2.58 65.09,18.29 81.71,33.43 16.96,15.28 22.35,28.75 19,31.75z"/>
               </g>
              </g>
             </g>
             <g>
              <g>
               <path class="fil1" d="M22779.13 4396.86c31.72,10.49 48.92,44.66 38.41,76.3 -10.52,31.62 -44.77,48.75 -76.49,38.27 -31.72,-10.5 -48.92,-44.66 -38.4,-76.31 10.51,-31.62 44.76,-48.75 76.48,-38.26z"/>
              </g>
              <g>
               <g>
                <path class="fil1" d="M22902.1 4419.65c-6.96,6.8 -45.94,-26.99 -103.19,-30.69 -57.23,-4.53 -100.63,23.33 -106.51,15.63 -2.92,-3.46 4.35,-16.02 23.32,-28.69 18.63,-12.62 49.97,-23.99 85.68,-21.41 35.66,2.55 65.08,18.27 81.7,33.43 16.97,15.27 22.35,28.74 19,31.73z"/>
               </g>
              </g>
             </g>
             <g>
              <g>
               <path class="fil1" d="M22470.01 4867.14c-0.03,-4.49 35.93,-8.77 94.1,-12.06 15.11,-0.39 27.12,-2.82 28.86,-10.75 3.43,-8.81 -1.07,-25.21 -7.24,-43.6 -11.65,-38.92 -23.45,-78.32 -35.81,-119.6 -49.07,-170.25 -81.83,-310.22 -73.15,-312.7 8.66,-2.48 55.45,133.48 104.52,303.71 11.52,41.52 22.5,81.16 33.36,120.32 4.1,17.69 12.85,38.69 3.14,62.68 -5.13,11.99 -17.64,19.96 -27.73,21.73 -10.13,2.2 -18.58,1.5 -25.8,1.26 -58.18,-2.63 -94.21,-6.49 -94.24,-10.99z"/>
              </g>
             </g>
             <g>
              <path class="fil11" d="M22446.99 5569.71c0,0 -264.24,-0.01 -529.01,-197.44 0,0 103.76,308.51 521.25,304.85l7.77 -107.41z"/>
             </g>
            </g>
           </g>
           <g>
            <g>
             <path class="fil12" d="M21434.03 4458.01c0.41,-33.5 -25.25,-62.35 -58.79,-63.93 -77.56,-3.67 -205.07,24.57 -221.12,237.9 -22.93,304.74 272.78,234.4 273.97,225.7 0.93,-6.82 4.45,-281.09 5.94,-399.67z"/>
            </g>
            <g>
             <g>
              <path class="fil11" d="M21363.01 4736.47c-1.27,-1.08 -5.6,3.31 -14.91,6.75 -9.07,3.33 -24.36,4.97 -39.84,-2.16 -31.4,-14.25 -54.74,-67.42 -52.07,-122.45 1.28,-27.79 9.1,-53.77 20.6,-74.9 11.02,-21.59 26.65,-36.07 43.12,-37.73 16.45,-2.52 27.22,8.05 30.32,16.91 3.44,8.83 1.05,14.77 2.63,15.41 0.8,0.83 6.94,-4.6 5.43,-17.38 -0.81,-6.14 -3.85,-13.61 -10.59,-20.01 -6.89,-6.49 -17.43,-10.33 -28.85,-9.96 -23.67,-0.16 -46.52,19.88 -59.17,43.07 -13.94,23.2 -23.37,52.35 -24.84,83.55 -2.68,61.55 24.53,121.38 67.75,137.45 21.07,7.21 39.49,2.09 49.29,-4.4 10.03,-6.81 12.16,-13.51 11.14,-14.13z"/>
             </g>
            </g>
           </g>
          </g>
          <g>
           <path class="fil1" d="M21995.52 4256.07c15.09,19.54 67.77,10.39 136.18,7.48 68.27,-5.52 121.7,-2.91 134.14,-24.16 14.12,-22.11 -51.95,-72.91 -139.98,-65.65 -88.27,3.63 -147.23,62.11 -130.34,82.33z"/>
          </g>
          <g>
           <path class="fil1" d="M22662.35 4235.81c8.26,26.6 58.42,34.59 114.08,34.24 55.67,-1.13 105.61,-10.44 113.23,-37.26 7.82,-26.05 -42.69,-63.46 -114.43,-62.42 -71.72,0.87 -121.32,39.61 -112.88,65.44z"/>
          </g>
         </g>
         <path class="fil1" d="M23007.88 3891.3c0,0 -249.54,121.57 -574.29,-41.56 -213.12,-107.04 -461.53,-159.33 -516.29,-116.21 -54.77,43.12 -66.32,264.09 -277.44,328.6 0,0 14.49,421.59 -152.55,406.55 -167.04,-15.03 -62.63,-668.01 -62.63,-668.01l408.65 -200.82 445.94 -84.79 420.18 59.62 325.12 89.58 -16.7 227.04z"/>
        </g>
       </g>
       <g>
        <g>
         <path class="fil7" d="M20211.2 6330.94c436.68,-451.92 1205.3,-402.6 1205.3,-402.6l637.1 458.96 361.29 -423.27c0,0 379.67,41.95 735.45,229.01l24.51 7.64 -0.33 5.11c279.46,152.72 675.21,518.97 1052.19,874.43l-451.13 421.29 -499.32 446.02c0,0 1.95,3.23 0.85,8.91 -5.2,27.03 69.43,640.56 145.84,1106.82 -454.74,436.67 -1034.35,623.63 -1677.9,510.14 -204.25,-36.02 -303.1,-86.11 -492.24,-136.05 -279.55,-73.8 -482.15,-317.68 -507.23,-607.41 -34.05,-390.82 -59.97,-874.68 -59.97,-874.68l-474.41 -1624.31z"/>
         <g>
          <path class="fil1" d="M22814.37 6042.83c1.52,-0.47 11.22,25.21 27.43,72.14 16.34,46.86 38.56,115.16 64.83,199.95 52.58,169.53 119.57,405.6 182.89,669.06 63.18,263.6 110.64,504.44 140.73,679.44 15.09,87.5 26.28,158.46 33.01,207.68 6.83,49.19 9.85,76.5 8.28,76.75 -1.58,0.28 -7.62,-26.53 -17.18,-75.22 -10.25,-52.52 -23.8,-122.04 -40.22,-206.18 -34.18,-174.01 -84.09,-413.87 -147.15,-676.96 -63.22,-263 -127.56,-499.31 -176.06,-669.84 -23.56,-82.41 -43.03,-150.5 -57.73,-201.93 -13.57,-47.72 -20.37,-74.35 -18.82,-74.86z"/>
         </g>
         <g>
          <path class="fil1" d="M23224.6 7658.32c-4.04,-4.99 186.45,-167.9 425.42,-363.82 239.05,-195.98 436.05,-350.77 440.09,-345.74 4.05,4.98 -186.41,167.86 -425.46,363.84 -238.95,195.92 -435.99,350.72 -440.05,345.72z"/>
         </g>
         <path class="fil13" d="M20787.63 6951.22l-390.88 1293.85 145.46 76.1 143.39 -365.93c0,0 147.36,-768.68 102.02,-1004.03z"/>
         <g>
          <path class="fil13" d="M22772.03 6043.63c210.67,111.79 -317.36,380.73 -555.84,373.49l173.19 -459.82c0,0 311.95,48.83 382.65,86.33z"/>
         </g>
        </g>
        <path class="fil7" d="M21353.66 5957.31l0 -342.62c0,0 665.01,172.21 689.15,572.6 0,0 84.59,-442.59 427.2,-463.81l48.4 622.56 -398.7 349.1 -404.15 0 -320.08 -277.87 -41.83 -432.31 0 -27.65z"/>
        <g>
         <path class="fil1" d="M22192.45 8107.86c-1.58,-0.1 -1.91,-26.35 -1.14,-73.7 0.99,-47.34 1.84,-115.85 2.05,-200.45 0.58,-169.19 -4.68,-402.97 -25.76,-660.17 -21.39,-257.27 -54.54,-488.73 -82.85,-655.51 -14.21,-80.29 -25.97,-146.77 -34.92,-197.35 -8.52,-46.57 -12.5,-72.51 -10.93,-72.85 1.54,-0.36 8.52,24.92 19.76,70.97 11.48,45.99 26.03,113.04 42.23,196.27 32.51,166.42 68.36,398.35 89.81,656.53 21.17,258.1 23.85,492.82 19.06,662.34 -2.33,84.77 -5.68,153.33 -9.44,200.61 -3.55,47.29 -6.25,73.38 -7.87,73.3z"/>
        </g>
        <g>
         <path class="fil1" d="M22012.23 6072.05c-0.28,1.99 -15.12,-5.77 -39.46,3.69 -25.43,8.26 -48.15,40.09 -66.75,85.54 -40.84,89.06 -91.34,217.4 -126.5,370.22l-3.53 15.3 -13.41 -8.16c-39.76,-24.15 -80.52,-50.29 -121.52,-78.26 -79.47,-54.43 -152.15,-109.91 -215.64,-164.86 -31.92,-27.63 -58.28,-61.14 -73.41,-96.73 -14.93,-35.63 -20.77,-71.26 -22.41,-103.34 -2.6,-64.46 7.9,-115.27 14.77,-149.84 7.44,-34.62 13.1,-53.32 14.57,-53.02 1.67,0.34 -1,19.72 -5.68,54.56 -4.14,34.74 -11.9,85.51 -7.31,147.22 2.6,30.68 9.13,64.04 23.62,96.55 14.78,32.44 38.74,62.08 69.94,88.45 62.88,52.89 135.91,107.89 214.54,161.71 40.66,27.74 81.03,53.8 120.3,78.05l-16.93 7.15c36.69,-154.55 90.57,-283.41 135.33,-371.42 10.99,-21.96 21.67,-42.31 34.97,-57.69 13.03,-15.59 28.87,-25.11 42.45,-28.97 28.25,-7.91 43.1,3.54 42.05,3.87z"/>
        </g>
        <g>
         <path class="fil1" d="M22470.01 5723.48c1.63,-0.06 3.68,19 6.26,53.49 2.87,39.29 6.41,88.07 10.61,145.82 4.99,61.45 12.4,134.43 24.9,214.81 4.84,39.66 18.72,82.77 7.97,131.5 -13.75,47.88 -49.56,83.61 -87.47,112.46 -53.26,39.83 -108.95,69.64 -146.33,111.83l-17.72 19.99 -1.74 -26.65c-9.25,-141.52 -56.2,-257.99 -98.24,-333.7 -42.26,-76.33 -77.15,-115.59 -74.37,-117.82 0.91,-0.8 10.41,8.22 26.23,26.46 15.71,18.32 37.2,46.37 60.32,84.24 46.17,75.07 97.33,193.48 108.29,339.26l-19.44 -6.66c40.67,-46.5 98.21,-77.31 149.02,-115.57 36.22,-27.16 68.18,-60.83 79.46,-99.51 9.46,-39.28 -2.29,-82.04 -7.13,-122.69 -11.43,-81.26 -17.2,-155.01 -20.12,-216.88 -2.9,-61.89 -3.43,-111.99 -3.27,-146.6 0.2,-34.62 1.18,-53.75 2.76,-53.8z"/>
        </g>
       </g>
      </g>
      <g>
       <g>
        <path class="fil1" d="M24610.48 5809.45c-27.03,32.05 -1006.05,1349.39 -1006.05,1349.39l137.82 78.6 1004.67 -1300.59 -136.43 -127.39 0 -0.01z"/>
        <path class="fil12" d="M20677.53 6850.97c0,0 1029.92,1491.9 1091.97,1521.19 122.25,57.74 1531.26,-1167.55 1665.63,-1284.77 18.5,-24.9 56.74,-77.44 131.78,-181.92 0,0 111.16,-511.92 229.79,-472.6 118.65,39.32 -64.99,260.14 12.27,454.62 77.26,194.48 431.09,-269.41 445.25,-311.05l91.26 -119.97c0,0 95.69,273.01 89.19,387 -20.75,365.21 -364.13,799.55 -364.13,799.55 0,0 -1542.02,1922.2 -2598.29,1981.86 -304.24,17.17 -844.85,-851.48 -1206.29,-1502.84 -218.28,-393.34 -109.35,-888.88 252.4,-1154.32l159.16 -116.76z"/>
        <g>
         <path class="fil11" d="M24261.35 6908.4c-3.41,-2.12 29.57,-60.78 66,-135.13 36.65,-74.3 62.98,-136.24 66.73,-134.82 3.46,1.24 -17.26,66.01 -54.25,141 -36.79,75.08 -75.39,130.95 -78.48,128.95z"/>
        </g>
       </g>
       <g>
        <path class="fil7" d="M20503.18 6122.89c0,0 -1105.47,395.5 -283.57,2266.19l1276.15 -775.06 -181.56 -437.45 -811.02 -1053.68z"/>
        <g>
         <path class="fil1" d="M20418.47 6155.25c0,0 48.23,-8.02 133.09,11.27 41.87,10.85 92.19,29.47 144.97,61.58 52.85,31.86 107.74,76.68 161.08,132.97 107.27,112.54 207.39,269.59 300.25,451.45 93.52,181.91 180.78,389.05 270.27,606.73 26.8,65.2 53.22,129.46 78.24,190.33l3.97 9.65 -9.07 4.98c-369.22,202.55 -690.74,392.2 -917.98,534.16 -113.7,70.82 -204.26,129.05 -266.42,169.53 -29.7,19.19 -53.47,34.55 -71.59,46.27 -16.45,10.4 -25.25,15.55 -25.67,14.93 -0.43,-0.62 7.56,-6.96 23.21,-18.52 15.71,-11.49 38.85,-28.57 69.39,-49.69 60.77,-42.69 150.11,-102.99 262.86,-175.66 225.33,-145.62 545.89,-337.96 915.15,-541.34l-5.1 14.61c-25.08,-60.87 -51.55,-125.13 -78.42,-190.32 -89.45,-217.6 -175.89,-424.42 -267.84,-605.84 -91.33,-181.43 -189.08,-337.75 -293.17,-449.93 -51.77,-56.14 -104.85,-100.93 -155.95,-133.18 -51.04,-32.48 -99.74,-51.9 -140.46,-63.9 -82.52,-21.66 -131.04,-16.81 -130.8,-20.07z"/>
        </g>
       </g>
      </g>
     </g>
     <g>
      <path class="fil7" d="M22796.51 3381.76c0.78,-0.15 2.65,6.51 5.47,19.52 2.06,13.06 4.81,32.7 3.22,58.06 -2.46,49.73 -20.45,126.78 -84.3,194.01 -61.73,67.34 -179.18,109.85 -297.52,75.59 -57.96,-17.02 -116.51,-52.54 -152.35,-111.11 -17.4,-29.01 -27.8,-65.08 -22.8,-101.19 4.83,-35.36 22.53,-71.19 54.68,-92.46 32.12,-21.93 74.35,-21.3 106.9,-6.93 33,14.11 60.27,41.19 73.07,73.91 26.11,65.77 6.87,136.86 -29.22,186.25 -76.73,102.18 -215.24,110.41 -292,63.87 -40.56,-18.73 -76.31,-36.37 -110,-42.46 -33.54,-6.93 -63.29,-1.04 -85.08,9.02 -43.67,21.14 -61.32,44.52 -63.37,41.96 -0.56,-0.54 3.89,-5.79 13.03,-15.41 4.55,-4.85 10.13,-10.91 18.19,-16.48 7.67,-6.03 16.58,-12.99 28.32,-18.3 22.34,-11.97 54.88,-19.86 91.08,-13.65 36.32,5.3 74,22.74 114.35,40.19 20.32,8.27 41.58,17.27 64.25,21.38 22.25,3.85 47.19,3.42 71.72,-1.32 49.07,-8.89 99.38,-35.97 132.27,-81.52 32.19,-44.55 48.18,-109.38 25.49,-164.73 -19.94,-54.06 -94.79,-90.71 -146.32,-56.28 -25.12,16.45 -40.39,46.16 -44.5,76.04 -4.24,30.14 4.19,60.48 19.46,86.37 31.32,52.08 85.15,86.03 138.83,102.21 109.98,32.99 220.46,-4.71 279.86,-66.59 61.83,-61.95 81.93,-135.09 86.96,-183.09 5.27,-49.14 -2.26,-76.57 0.31,-76.88z"/>
     </g>
     <g>
      <path class="fil1" d="M22555.76 5071.49c0.49,2.84 -13.68,8.72 -38.16,9.78 -24.32,1.15 -58.78,-4.31 -92.45,-21.3 -33.61,-17.11 -58.48,-41.76 -72.04,-62.1 -13.72,-20.42 -17.44,-35.39 -14.88,-36.67 5.85,-3.55 35.5,47.49 97.36,77.94 61.1,31.9 119.51,25.52 120.17,32.35z"/>
     </g>
     <g>
      <path class="fil1" d="M21388.04 4873.41c2.03,-1.93 14.56,19.73 -1.6,50.55 -7.88,14.42 -22.79,30.05 -45.39,36.25 -22.72,6.37 -49.75,-1.13 -69.13,-18.25 -19.55,-16.98 -30.43,-42.23 -29.29,-65.05 0.7,-22.74 10.2,-41.14 20.32,-53.63 21.39,-25.3 43.13,-27.65 43.48,-25.12 1.66,3.36 -15.74,11.3 -30.18,34.75 -14.98,22.19 -20.8,64.94 10.9,91.45 14.59,12.77 33.46,18.32 49.01,14.91 15.83,-3.2 28.66,-13.67 36.43,-24.13 16.17,-21.79 11.81,-41.23 15.46,-41.74z"/>
     </g>
     <g>
      <path class="fil7" d="M22869.82 3532.67c2.08,-1.06 18.52,28.69 21.42,82.31 3.34,52.54 -11.82,130.63 -66.07,193.97 -54.63,63.02 -129.32,89.17 -181.46,93.31 -53.17,4.71 -84.74,-7.44 -83.99,-9.68 0.55,-3.98 32.38,1.91 81.83,-6.68 48.74,-8 116.34,-34.79 166.1,-92.24 49.44,-57.71 66.24,-128.84 67.2,-178.53 1.43,-50.46 -8.88,-81.34 -5.03,-82.46z"/>
     </g>
    </g>
    <g>
     <path class="fil3" d="M21363.97 7281.85c2.83,5.77 -290.79,157.7 -655.74,339.3 -365.08,181.64 -663.25,324.17 -666.09,318.39 -2.84,-5.77 290.72,-157.66 655.81,-339.32 364.96,-181.59 663.18,-324.15 666.02,-318.37z"/>
    </g>
    <g>
     <path class="fil3" d="M21096.36 6773.65c3.03,5.67 -258.34,152.77 -583.71,328.48 -325.48,175.8 -591.7,313.66 -594.74,307.97 -3.02,-5.67 258.3,-152.73 583.78,-328.51 325.36,-175.73 591.63,-313.61 594.67,-307.94z"/>
    </g>
    <g>
     <path class="fil3" d="M20837.84 6362.66c1.5,2.96 -48.85,32 -130.75,77.87 -87.53,49.14 -197.76,111.02 -319.67,179.46 -121.3,69.61 -230.97,132.53 -318.05,182.51 -81.36,46.79 -132.11,75.12 -133.85,72.31 -1.62,-2.67 46.09,-35.97 125.41,-86.47 79.29,-50.49 190.37,-117.84 315.1,-188.67 124.73,-70.77 239.45,-131.55 323.41,-173.73 83.96,-42.18 136.98,-66.05 138.4,-63.28z"/>
    </g>
    <g>
     <path class="fil3" d="M21815.73 6265.5c-0.57,2.68 -34.85,-1.81 -86,-23.29 -51.16,-21.04 -117.35,-61.46 -180.06,-117.93 -62.77,-56.47 -111.43,-115.2 -145.22,-158.26 -33.66,-43.28 -52.65,-71.4 -50.26,-73.41 2.54,-2.1 26.05,22.37 62.75,62.72 36.84,40.17 86.85,96.42 148.13,151.5 61.21,55.1 123.58,96.16 171.56,120.43 47.85,24.62 80.08,34.69 79.09,38.25z"/>
    </g>
    <g>
     <path class="fil3" d="M22465.31 6022.8c5.63,1.64 -21.32,74.58 -92.49,134.31 -70.63,60.42 -146.64,74.72 -147.29,68.83 -2.26,-6.67 66.28,-29.91 132.35,-86.67 66.81,-55.83 101.25,-119.83 107.43,-116.47z"/>
    </g>
    <g>
     <path class="fil3" d="M23623.18 6697.14c0.1,0.79 -8.46,2.38 -24.8,4.66 -18.93,2.36 -42.63,5.29 -71.64,8.88 -62.26,6.93 -152.53,15.68 -264.21,24.41 -223.36,17.92 -532.38,35.47 -873.94,48 -341.69,12.02 -651.21,16.68 -875.25,14.81 -112.02,-0.69 -202.67,-2.93 -265.29,-5.37 -29.18,-1.5 -53,-2.74 -72.06,-3.73 -16.46,-1.1 -25.09,-2.06 -25.06,-2.89 0.02,-0.8 8.69,-1.38 25.19,-1.8 19.04,-0.18 42.9,-0.4 72.1,-0.66 65.83,-0.52 155.59,-1.2 265.08,-2.04 223.81,-2.38 533,-9.62 874.46,-21.64 341.31,-12.52 650.2,-27.45 873.63,-41.14 109.29,-7.02 198.87,-12.76 264.56,-16.99 29.15,-1.83 52.96,-3.32 71.98,-4.51 16.49,-0.77 25.19,-0.79 25.26,0.02z"/>
    </g>
    <g>
     <path class="fil3" d="M23271.54 7228.48c0.15,1.59 -25.89,5.64 -73.18,11.6 -47.28,5.92 -115.82,13.37 -200.65,21.04 -169.62,15.73 -404.43,31.98 -664.1,42.61 -259.78,10.47 -495.16,13.33 -665.49,11.44 -85.16,-0.75 -154.06,-2.62 -201.66,-4.69 -47.6,-2.09 -73.87,-4.02 -73.85,-5.62 0.04,-1.6 26.38,-2.77 73.97,-3.46 51.56,-0.7 119.45,-1.63 201.51,-2.74 170.12,-2.32 405.12,-7.79 664.59,-18.25 259.37,-10.61 494.01,-24.25 663.78,-35.74 81.87,-5.55 149.62,-10.13 201.06,-13.62 47.5,-3.17 73.86,-4.16 74.03,-2.56l-0.01 0z"/>
    </g>
    <g>
     <path class="fil3" d="M22473.36 7883.87c0.29,3.12 -56.06,11.48 -147.59,20.94 -91.5,9.47 -218.22,19.69 -358.42,26.74 -140.25,7 -267.37,9.49 -359.37,9.2 -92,-0.28 -148.89,-2.96 -148.91,-6.09 -0.02,-3.3 56.78,-6.44 148.57,-10.4 98.41,-4.39 221.91,-9.92 358.55,-16.02 136.49,-7.57 259.93,-14.42 358.28,-19.88 91.72,-5.25 148.58,-7.79 148.88,-4.49z"/>
    </g>
    <g>
     <path class="fil3" d="M21452.97 6328.68c-0.17,6.69 -136.76,8.16 -304.87,15.27 -168.18,6.81 -304.41,16.62 -305.11,9.95 -0.7,-6.16 135.1,-26.43 304.16,-33.28 168.99,-7.13 306.02,1.87 305.82,8.06z"/>
    </g>
    <g>
     <path class="fil3" d="M23331.49 6304.48c-0.02,6.45 -177.21,11 -395.68,10.16 -218.56,-0.82 -395.65,-6.74 -395.64,-13.18 0.04,-6.42 177.17,-10.98 395.72,-10.14 218.48,0.82 395.63,6.73 395.6,13.16z"/>
    </g>
    <g>
     <path class="fil3" d="M23399.87 9031.14c0.67,1.45 -13.78,9.72 -40.57,23.44 -26.7,13.91 -66.25,32.19 -115.83,53.09 -99.08,41.92 -239.9,91.43 -399.98,128.71 -160.22,37.03 -308.37,54.52 -415.69,60.48 -53.67,3.04 -97.17,4.04 -127.23,3.28 -30.05,-0.52 -46.65,-1.59 -46.67,-3.22 -0.07,-3.73 66.21,-6.29 172.64,-16.51 106.39,-10.12 252.86,-30.06 411.74,-66.76 158.75,-36.96 299.12,-83.55 399.19,-121.32 100.12,-37.69 160.84,-64.59 162.41,-61.19z"/>
    </g>
   </g>
   <g>
    <g id="_1703139911840_0">
     <g>
      <path class="fil5" d="M7758.64 18593.5c1051.45,-1030.27 1068.73,-2623.96 795.17,-4008.87 -45.62,-231.18 -60.13,-480.43 -203.22,-666.32 -143.12,-185.8 -422.17,-282.97 -613.08,-150.93 -158.35,109.5 -200.44,322.66 -269.4,504.52 -91.71,242.04 -252.21,456.23 -457.06,610.02 -134.62,101.05 -308.98,178.02 -467.3,121.35 -217.27,-77.82 -285.83,-350.97 -322.02,-582.46 -67.41,-431.39 -134.9,-862.75 -202.29,-1294.05 -36.19,-231.42 -73.92,-467.63 -181.09,-675.3 -107.15,-207.65 -298.22,-385.48 -526.79,-411.09 -228.67,-25.57 -478.28,145.76 -487.63,379.68 -3.86,97.33 31.09,191.95 40.32,288.94 9.25,97.05 -17.93,210.57 -104.17,252.24 -87.28,42.21 -189.88,-8.2 -269.57,-64.55 -275.14,-194.37 -485,-468.6 -684.05,-742.88 -199.05,-274.31 -394.85,-556.43 -651.46,-775.6 -256.6,-219.2 -587.06,-371.92 -919.15,-336.46 -332.14,35.46 -649.45,297.6 -679.72,636.38 -30.35,339.69 212.44,639.26 460.99,869.23 368.78,341.23 786.02,627.95 1234.48,848.37 80.85,39.8 168.44,82.75 210.06,163.83 74.99,145.92 -45.24,322.93 -188.22,398.5 -161.92,85.63 -350.67,98.35 -526.36,149.07 -175.69,50.75 -356.84,162.25 -396.88,343.81 -55.68,251.82 181.04,467.17 400.69,597.56 439.81,261.16 923.47,444.96 1423.15,541.1 179.14,34.38 365.89,59.66 521.63,156.68 155.73,97.11 271.81,291.33 215.98,467.72 -55.9,176.63 -258.76,263.57 -441.18,259.65 -182.33,-3.85 -356.59,-74.49 -535.71,-110.72 -335.27,-67.92 -739.46,21.16 -897.05,329.1 -103.53,202.39 -74.35,455.68 27.9,659.75 102.17,204.11 268.71,366.98 441.28,514.03 603.28,514.1 1329.38,888.37 2103.48,1023.27 773.98,134.9 1463.95,92.26 2148.26,-295.57z"/>
     </g>
    </g>
    <g id="_1703139911936_1">
     <g>
      <g>
       <g>
        <path class="fil6" d="M7463.23 18550.62c-89.4,-347.26 -233.96,-750.92 -438,-1178.09 -203.22,-427.65 -464.61,-877.84 -754.09,-1339.23 -72.8,-115.06 -144.72,-228.79 -215.6,-340.84 -70.99,-111.69 -141.42,-222.49 -216.95,-326.53 -150.18,-208.85 -310.4,-398.11 -468.06,-572.97 -157.63,-175.02 -313.56,-335.3 -460.43,-484.1 -147.28,-148.53 -287.13,-284.39 -419.83,-402.72 -264.81,-237.77 -500.5,-403.74 -666.9,-511.03 -83.13,-53.94 -148.99,-93.63 -193.99,-119.94 -21.62,-12.46 -38.59,-22.23 -51.35,-29.6 -11.66,-6.49 -17.72,-9.65 -17.95,-9.23 -0.27,0.42 5.34,4.37 16.52,11.7 12.43,7.94 28.96,18.49 49.96,31.93 44.01,27.84 108.92,68.99 191.08,124.22 164.39,109.94 397.47,277.79 659.86,516.68 131.52,118.94 270.27,255.28 416.59,404.33 146.09,149.42 301.19,310.03 457.95,485.03 156.72,174.91 315.89,363.86 464.94,571.75 74.97,103.6 144.65,213.47 215.76,325.5 70.82,112.01 142.64,225.69 215.38,340.71 289.21,461.06 550.61,909.75 754.52,1335.51 204.59,425.25 350.45,826.58 441.91,1171.95l18.67 -5.01z"/>
       </g>
      </g>
     </g>
     <g>
      <g>
       <g>
        <path class="fil6" d="M5830.7 15366.1c1.86,-0.01 3.21,-23.27 4.08,-65.39 1.08,-42.09 0.62,-103.02 -1.02,-178.31 -3.18,-150.51 -14.61,-358.23 -28.07,-587.19 -13.49,-229.1 -21.96,-436.36 -22.85,-586.51 -0.64,-75.07 -0.58,-135.84 0.01,-177.85 0.37,-42.04 -0.34,-65.35 -2.22,-65.48 -1.89,-0.12 -4.79,22.98 -8.4,64.95 -3.87,41.95 -6.91,102.86 -8.68,178.15 -4.1,150.65 1.32,358.92 14.84,588.21 13.85,225.91 26.42,430.28 36.01,586.42 3.9,70.57 7.13,130.05 9.73,177.79 2.44,41.96 4.65,65.23 6.57,65.21z"/>
       </g>
      </g>
     </g>
     <g>
      <g>
       <g>
        <path class="fil6" d="M3885.35 15322.12c0.26,1.88 27.62,0.59 76.78,-3.35 49.14,-3.63 120.22,-9.29 208.23,-13.43 175.94,-9.71 419.43,-14.56 688.33,-8.06 268.96,6.97 512.09,23.7 687.58,40.91 87.85,7.99 158.75,16.37 207.82,21.87 49.04,5.69 76.29,7.94 76.62,6.04 0.27,-1.92 -26.47,-7.78 -75.17,-16.8 -48.69,-8.78 -119.42,-20.16 -207.28,-30.71 -175.49,-22.28 -419.26,-42.17 -689.03,-49.21 -269.66,-6.45 -514.05,1.48 -690.18,16.3 -88.15,6.7 -159.19,15.32 -208.11,22.34 -48.91,7.26 -75.78,12.15 -75.57,14.09z"/>
       </g>
      </g>
     </g>
     <g>
      <g>
       <g>
        <path class="fil6" d="M6996.35 17341.41c0.93,0.24 4.04,-8.46 9.17,-25.3 5.72,-20.01 12.67,-44.44 21.11,-74.03 18.03,-64.37 41.72,-158.2 69.47,-274.53 55.67,-232.6 122.51,-556.34 191.47,-914.56 69.03,-358.39 132.78,-682.32 183.54,-915.75 25.01,-113.54 45.62,-206.92 60.92,-276.33 6.48,-30.1 11.8,-54.92 16.15,-75.31 3.4,-17.25 4.75,-26.45 3.83,-26.73 -0.91,-0.2 -4.03,8.49 -9.16,25.35 -5.71,20.01 -12.69,44.4 -21.11,73.99 -18.05,64.37 -41.73,158.19 -69.49,274.52 -55.66,232.6 -122.5,556.35 -191.48,914.73 -69.01,358.28 -132.76,682.17 -183.52,915.64 -25.06,113.49 -45.6,206.92 -60.92,276.28 -6.47,30.11 -11.78,54.97 -16.16,75.3 -3.38,17.3 -4.75,26.5 -3.82,26.74l0 -0.01z"/>
       </g>
      </g>
     </g>
     <g>
      <g>
       <g>
        <path class="fil6" d="M4355.69 16941.16c-0.08,0.95 9.07,3.07 26.57,6.22 20.7,3.38 46.08,7.53 76.85,12.56 70.86,10.86 166.51,25.54 282.85,43.33 238.84,36.67 568.1,91.09 931.88,151.72 363.89,60.7 694,112.12 933.64,143.79 119.83,15.89 216.91,27.74 284.14,34.55 31.06,2.97 56.66,5.38 77.49,7.41 17.75,1.39 27.13,1.62 27.23,0.66 0.09,-0.95 -9.07,-3.07 -26.58,-6.26 -20.63,-3.35 -46.03,-7.49 -76.84,-12.52 -70.85,-10.88 -166.45,-25.5 -282.81,-43.35 -238.83,-36.62 -568.15,-91.07 -932.04,-151.74 -363.76,-60.66 -693.83,-112.09 -933.5,-143.75 -119.82,-15.9 -216.89,-27.74 -284.17,-34.57 -31.06,-2.95 -56.62,-5.43 -77.48,-7.39 -17.76,-1.38 -27.1,-1.62 -27.24,-0.66l0.01 0z"/>
       </g>
      </g>
     </g>
    </g>
   </g>
   <path class="fil3" d="M9443.75 13279.63c0,1021.98 863.04,1850.46 1927.67,1850.46 1064.61,0 1927.67,-828.48 1927.67,-1850.46 0,-1021.98 -863.04,-1850.45 -1927.67,-1850.45 -1064.61,0 -1927.67,828.49 -1927.67,1850.45z"/>
   <path class="fil1" d="M10978.66 8818.05c-305.82,16.03 -425.86,336.83 -462.44,408.45 -36.58,71.61 -42.3,154.52 -49.01,234.77 -6.71,80.21 -16.18,163.52 -58.68,231.75 -67.31,108.08 -208.71,163.95 -247.26,285.5 -43.58,137.41 68.28,284.43 38.47,425.53 -16.01,75.74 -70.95,138.08 -90.38,213 -20.28,78.22 0.86,162.8 41.28,232.67 100.43,173.6 308.64,260.78 508.15,267.94 199.5,7.18 394.64,-52.89 585.33,-112.31l-265.46 -2187.3 0 0.01z"/>
   <path class="fil1" d="M12324.35 9216.77c-29.94,65.14 -1.64,144.25 45.26,198.29 46.95,54.04 110,90.72 165.54,135.73 55.54,44.99 106.55,104.38 113,175.85 5.93,65.61 -26.82,130.71 -17.95,196 22.85,167.77 288.69,218.06 302.87,386.8 9.43,112.32 -105.15,215.54 -73.39,323.64 12.16,41.44 44.05,73.53 66.18,110.54 75.41,126.07 24.28,299.94 -85.04,397.68 -109.3,97.73 -261.27,132.19 -407.34,138.79 -122.84,5.54 -262.41,-14.65 -334.75,-114.71 -66.19,-91.56 -52.6,-216.44 -39.4,-328.87 61.75,-525.11 51.27,-1055.73 40.67,-1584.39l224.34 -35.36z"/>
   <path class="fil12" d="M11058.98 11646.84c2.33,-275.87 -0.23,-566.34 -0.23,-566.34 0,0 -352.48,-63.11 -420.33,-527.63 -64.7,-443 45.03,-1395.81 45.03,-1395.81 510.67,-202.69 1085.64,-124.28 1443.39,289.33l-55.62 2240.27c-6.45,260.09 -233.83,461.62 -510.51,452.54 -279.43,-9.17 -503.97,-229.52 -501.74,-492.36z"/>
   <path class="fil1" d="M10779.42 9888.68c-1.46,31.38 23.74,58.5 56.31,60.65 32.47,2.13 60.05,-21.51 61.51,-52.91 1.46,-31.36 -23.74,-58.55 -56.24,-60.69 -32.53,-2.14 -60.12,21.56 -61.58,52.95z"/>
   <g id="_1703141398240">
    <path class="fil1" d="M10684.37 9842.68c7.24,7.84 52.4,-24.97 116,-24.07 119.64,17.45 117.44,35.84 116.8,25.7 3.43,-3.43 -3.87,-17.5 -24.04,-32.63 -19.82,-15.05 -53.77,-29.87 -93.38,-30.17 -39.61,-0.24 -73.1,14.04 -92.42,28.86 -19.73,14.84 -26.5,28.82 -22.95,32.31z"/>
   </g>
   <path class="fil1" d="M11430.23 9907.56c-1.46,31.39 23.75,58.5 56.29,60.66 32.48,2.12 60.06,-21.52 61.53,-52.9 1.46,-31.38 -23.74,-58.56 -56.24,-60.71 -32.53,-2.14 -60.12,21.56 -61.58,52.95z"/>
   <g id="_1703141406688">
    <path class="fil1" d="M11347.6 9864.78c7.25,7.84 52.45,-24.97 116,-24.06 63.52,-0.01 109.81,33.45 116.81,25.69 3.42,-3.42 -3.82,-17.49 -24.05,-32.63 -19.82,-15.05 -53.77,-29.86 -93.37,-30.16 -39.62,-0.23 -73.09,14.05 -92.43,28.84 -19.68,14.88 -26.49,28.83 -22.95,32.32z"/>
   </g>
   <path class="fil1" d="M11111.37 10323.78c0.33,-3.62 -39.13,-10.95 -103.08,-19.95 -16.21,-1.88 -31.55,-5.29 -34.14,-16.49 -3.71,-11.85 3.3,-29.38 11.39,-48.29 15.73,-39.37 32.16,-80.64 49.45,-123.87 68.71,-176.36 118.65,-321.46 111.58,-324.17 -7.08,-2.73 -68.53,138.02 -137.26,314.38 -16.53,43.49 -32.38,84.96 -47.44,124.64 -6.34,18.5 -17.17,39.42 -9.15,64.03 4.23,12.27 16.05,21.25 26.42,24.21 10.37,3.31 19.5,3.59 27.53,4.17 64.43,4.24 104.4,4.99 104.69,1.35z"/>
   <path class="fil11" d="M11058.76 11080.49c0,0 309.73,23.72 618.96,-158.46 0,0 -153.37,316.77 -614.02,268.01l-4.94 -109.54z"/>
   <path class="fil11" d="M11136.49 10478.31c23.22,-30.15 63.48,-46.4 103.21,-41.61 27.57,3.3 55.3,17.02 71.79,39.81 16.51,22.81 19.65,54.96 4.16,76.35 -17.44,24.07 -53.35,29.27 -83.59,20.23 -30.26,-9.02 -56.14,-29.43 -80.72,-49.76 -6.8,-5.61 -13.74,-11.49 -17.94,-19.11 -4.2,-7.64 -5.01,-17.59 0.37,-23.82l2.72 -2.07z"/>
   <path class="fil1" d="M11298.01 10370.23c-10.34,-0.72 -11.27,68.74 -70.91,117.34 -59.56,48.78 -133.04,40.11 -133.68,49.81 -1.02,4.35 16.24,13.7 47.27,14.9 30.44,1.41 75.05,-7.92 111.55,-37.67 36.39,-29.81 52.35,-69.96 55.04,-98.44 2.96,-29 -4.54,-46.31 -9.26,-45.96z"/>
   <path class="fil1" d="M11926.72 9115.48c-168.59,241.96 -614.97,490.76 -934.58,548.49 37.32,-49.43 233.66,-171.23 270.97,-220.67 -144.91,108.87 -352.23,254.52 -544.45,264.36 -22.73,1.17 -47.35,1.11 -66.06,-10.36 -25.49,-15.61 -30.67,-45.99 -33.61,-72.84 -12.45,-113.36 -4.63,-307.71 13.29,-420.18 17.92,-112.49 69.29,-224.41 166.29,-299.8 123.14,-95.73 299.39,-119.35 465.45,-123.37 139.28,-3.37 282.84,4.91 410.15,55.49 127.31,50.59 236.19,150.53 254.82,270.71l-2.28 8.18z"/>
   <path class="fil1" d="M12410.09 10199.42c23.22,-120 41.72,-233.89 46.04,-309.93 13.58,-239.28 -55.07,-1122.43 -874.93,-1051.37l-33.09 251.27c0,0 -126.7,860.08 403.61,866.43 0,0 29.32,256.22 269.47,505.51 0,0 139.07,-4.26 188.9,-261.91l0 0.01z"/>
   <path class="fil12" d="M11951.72 9955.82c49.38,-9.02 101.46,-7.06 148.22,11.3 46.76,18.33 87.67,53.94 107.43,100.38 19.8,46.53 17.17,100.79 -0.44,148.22 -17.58,47.43 -49.13,88.57 -85.37,123.71 -26.01,25.23 -55.54,48.19 -90.14,58.69 -34.6,10.48 -75.13,6.59 -102.44,-17.22l22.73 -425.09z"/>
   <path class="fil11" d="M11975.51 10256.71c-5.66,1.78 15.43,32.02 60.62,20.34 21.73,-5.49 43.12,-24.44 56.24,-48.27 13.17,-24.21 21.86,-50.8 25.47,-81.99 3.48,-30.91 -3.15,-63.88 -19.84,-87.52 -15.89,-24.06 -42.14,-38.49 -64.3,-39.22 -46.33,-1.58 -61.05,30.56 -55.81,31.56 3.66,3.81 21.82,-12.63 52.08,-4.93 29.02,5.7 57.11,46.33 50.25,96.34 -6.08,50.96 -26.09,97.42 -53.22,108.76 -28.22,14.07 -48.35,0.87 -51.49,4.93z"/>
   <path class="fil1" d="M12041.23 9024.78c62.72,36 139.62,46.18 209.47,27.69 69.83,-18.47 131.81,-65.37 168.85,-127.77 23.9,-40.27 37.62,-89.12 25.91,-134.53 -16.02,-62.07 -76.03,-104 -137.7,-120.15 -89.49,-23.41 -190.89,-0.99 -258.5,62.46 -67.64,63.46 -96.76,167.29 -66.75,255.3 30.03,88 120.32,152.97 212.64,147.67l-153.91 -110.67z"/>
   <path class="fil1" d="M12115.96 10362.31c-45.61,33.13 -91.79,66.78 -127.44,110.57 -35.64,43.81 -60.15,99.68 -55,156.04 2.9,31.54 14.86,62.7 10.34,94.05 -6.23,43.11 -41.43,75.04 -64.62,111.83 -59.97,95.09 -34.19,228.54 41.65,311.37 75.83,82.84 191.05,120.23 302.93,123.9 64.88,2.14 133,-7.02 186.2,-44.47 76.67,-54.01 106.16,-155.25 108.13,-249.4l-402.18 -613.89z"/>
   <path class="fil7" d="M12171.64 9209.86c2.38,1.45 -13.86,35.11 -48.31,84.58 -34.31,49.41 -88.32,113.6 -157.9,173.9 -69.73,60.17 -140.9,104.26 -194.63,130.98 -53.77,26.85 -89.27,37.95 -90.35,35.36 -3.35,-6.77 133.53,-64.97 269.87,-184.02 137.4,-117.7 215.18,-245.15 221.32,-240.8z"/>
   <path class="fil7" d="M12256.67 9205.31c2.56,0.28 0.91,44.16 -15.09,113.07 -15.82,68.78 -48.79,162 -104.18,254.93 -55.66,92.78 -122.06,165.78 -175.04,212.06 -53.02,46.52 -90.77,68.52 -92.2,66.39 -5.5,-5.78 139.24,-107.01 247.38,-290.48 110.4,-182.02 131.5,-358.15 139.14,-355.97z"/>
   <path class="fil7" d="M10476.68 9578.75c6.82,-0.49 15.6,77.15 42.22,168.8 26.01,91.86 59.69,162.24 53.66,165.49 -5.07,3.18 -49.04,-64.24 -75.95,-159.03 -27.41,-94.6 -25.92,-175.23 -19.93,-175.26z"/>
   <path class="fil7" d="M12440.6 11164.04c1.21,-2.84 20.68,20.95 67.8,21.91 22.86,0.22 51.68,-6.39 78.44,-24.87 26.73,-18.13 48.63,-50.71 59.42,-90.54 10.78,-40.05 11,-86.73 0.86,-135.06 -9.62,-48.64 -28.36,-98.93 -44.87,-153.77 -16.06,-54.62 -30.11,-116.06 -19.78,-180.56 10.25,-65.7 52.54,-118.94 73.17,-177.89 21.03,-58.87 12.56,-124.05 -13.16,-176.81 -26.35,-53.46 -70.69,-92.32 -122.08,-112.26 -25.48,-10.96 -51.89,-20.23 -76.39,-33.63 -24.36,-13.14 -47.1,-31.5 -60.96,-54.96 -28.55,-47.23 -27.41,-98.52 -27.54,-140.95 0.79,-43.43 3.13,-81.44 -4.59,-113.98 -6.9,-32.5 -18.96,-59.12 -33.41,-77.17 -29.94,-36.9 -61.59,-34.3 -60.08,-37.35 -0.02,-0.41 6.87,-1.48 19.45,1.5 12.5,2.72 30.87,11.33 47.51,29.98 16.65,18.5 30.68,46.22 39.16,80.12 9.36,34.09 8.1,74.61 8.35,116.87 0.89,42 1.86,90.56 27.36,130.57 24.91,41.13 76.78,58.18 129.41,79.17 54.35,20.16 105.78,63.88 134.12,121.84 28.42,57.39 38.08,129.15 14.72,194.76 -23.16,64.26 -63.8,115.48 -72.66,174.01 -9.77,58.41 2.61,117.06 17.88,170.67 15.62,53.96 34.05,105.35 43.26,156.15 9.73,50.59 8.71,100.56 -3.98,143.29 -12.68,42.69 -37.56,77.73 -68,96.85 -30.09,19.13 -61.39,24.73 -85.95,23.08 -24.84,-1.42 -42.81,-10.31 -53.28,-17.55 -10.66,-7.33 -14.19,-13.44 -14.19,-13.44z"/>
   <path class="fil7" d="M12119.14 11132.56c2.06,-1.33 5.83,14.36 27.41,24.25 19.41,9.45 62.75,10.08 86.4,-23.54 24.12,-33.89 20.39,-90.9 -7.2,-140.24 -25.38,-50.67 -75.85,-100.27 -88.72,-174.27 -6.82,-35.75 1.7,-76.49 24.78,-103.35 21.75,-27.03 47.39,-45.06 64.06,-67.19 33.59,-44.66 36.41,-100.63 31,-143.06 -5.72,-43.51 -18.09,-77.83 -25.52,-101.69 -7.83,-23.83 -11.82,-37.26 -10.29,-37.88 1.43,-0.58 8.23,11.6 18.69,34.59 10.06,23.07 25.12,56.93 33.34,102.52 7.63,44.58 7.61,105.57 -30.2,158.5 -18.91,25.7 -44.83,44.58 -63.21,68.33 -19.01,23.06 -25.28,53.78 -19.77,85.46 10.47,64.42 57.81,113.31 84.79,168.14 28.84,53.96 32.63,119.69 1.51,159.87 -15.06,20.62 -37.9,29.15 -56.51,31.09 -19.05,1.89 -35.69,-2.21 -47.27,-9.17 -23.85,-14.65 -24.16,-33.02 -23.3,-32.33z"/>
   <path class="fil7" d="M10373.66 11015.48c-1.16,0.98 -14.3,-11.68 -36.27,-36.41 -21.27,-25.03 -53.72,-61.78 -77.69,-117.81 -11.84,-27.97 -19.59,-61.46 -18.68,-97.8 0.82,-35.99 11.46,-76.46 39.24,-108.55 27.61,-32.24 67.65,-48.86 91.78,-79.03 24.93,-29.83 28.11,-73.68 18.43,-115.29 -9.62,-42.44 -29.03,-80.47 -48.85,-118.41 -19.17,-38.07 -36.82,-76.82 -43.29,-117.59 -7.13,-40.47 1.76,-82.97 22.92,-113.13 20.55,-30.53 46.28,-51.43 67.87,-71.15 44.91,-37.15 70.34,-77.66 76.01,-109.15 6.22,-31.52 -4.51,-48.73 -1.92,-49.39 0.56,-0.29 3.52,3.44 6.75,11.81 3.29,8.28 6.19,21.82 4.09,38.98 -3.01,34.6 -29.33,80.5 -73.82,119.89 -21.03,20.54 -45.27,41.86 -62.83,69.57 -17.97,27.36 -24.68,62.65 -17.98,99.1 6.31,36.57 23.24,73.33 42.43,110.64 19.62,36.92 40.95,77.89 51.25,123.72 10.71,44.85 7.61,98.22 -23.4,134.84 -30.28,35.81 -70.1,51.31 -93.4,78.84 -24.08,26.85 -34.52,62.22 -36.04,95.1 -1.62,33.14 4.51,64.3 14.71,90.93 20.69,53.72 50.45,91.66 69.45,118.18 19.67,26.31 30.55,41.05 29.27,42.14z"/>
   <path class="fil14" d="M12230.64 9083.37c-6.28,3.2 -37.27,-65.43 -108.56,-118.67 -70.34,-54.58 -144.38,-65.88 -143.04,-72.85 -0.91,-5.95 80.64,-4.62 157.02,54.22 77.06,57.95 100.54,136.56 94.58,137.3z"/>
   <path class="fil7" d="M12294.95 8654.31c2.35,-1.47 17.24,16.06 29.29,50.84 12.1,34.28 19.02,87.13 3.94,142.19 -15.13,55.05 -48.05,96.82 -75.92,119.99 -28.07,23.62 -49.8,30.97 -51.04,28.51 -1.85,-3.13 16.36,-15.38 39.77,-40.48 23.37,-24.77 51.11,-64.32 64.84,-114.24 13.66,-49.9 10.06,-98.18 2.63,-131.5 -7.3,-33.63 -16.68,-53.55 -13.5,-55.29z"/>
   <path class="fil15" d="M10033.75 14166.54c0,0 1106.32,1057.18 1763.96,865.76 657.65,-191.43 852.31,-687.89 852.31,-687.89l15.95 -177.87 -65.91 -43.37 -2531.92 -206.29 -34.38 249.66z"/>
   <path class="fil11" d="M9379.24 13176.28l213.36 -550.55 764.71 483.46 -681.39 1057.35c0,0 -277.17,-362.28 -296.66,-990.25l-0.01 0z"/>
   <path class="fil10" d="M10242.18 11655.1c355.77,-187.05 816.57,-240.92 816.57,-240.92 133.74,269.42 555.23,303.58 810.43,119.73l215.21 -146.39c0,0 33.33,-1.33 90.16,3.72 503.38,44.8 915.44,423.11 1018.04,921.06 37.36,181.27 64.85,389.28 53.81,582.18 -27.96,489.48 -531.78,533.76 -531.78,533.76 0,0 -25.91,483.87 -59.96,874.68l0 0.04c-25.29,292 -175.84,510.14 -440.59,632.36 -197.04,90.96 -305.79,133.06 -561.64,174.23 -645.17,103.83 -1264.91,-142.63 -1673.55,-583.14 76.42,-466.25 149.46,-1069.96 144.25,-1097 -1.09,-5.69 0.85,-8.92 0.85,-8.92l-499.32 -446.02 -283 -239.15c0,0 621.05,-927.52 900.51,-1080.23l0 0.01z"/>
   <path class="fil8" d="M10860.87 11956.78c-1.86,4.59 -42.61,-34.43 -123.44,-34.37 -39.07,0.14 -87.53,11.54 -127.3,44.45 -19.81,16.02 -36.67,38.69 -56.69,61.27 -19.55,22.1 -44.89,47.31 -80.81,53.93 -35.95,6.81 -69.19,-9.14 -94.06,-25.34 -25.67,-16.49 -47.59,-34.6 -70.11,-47.61 -44.03,-27.16 -94.15,-24.57 -130.63,-11.46 -37.21,13.14 -61.87,35.57 -75.9,52.69 -14.01,17.45 -19.11,29.33 -21.04,28.49 -1.02,-0.31 1.18,-13.54 13.73,-33.84 12.6,-19.86 37.44,-46.3 77.4,-62.76 38.64,-16.5 96.25,-21.59 146.96,8.17 24.83,13.71 47.38,31.8 71.63,46.95 23.98,15.21 50.9,26.99 77.92,21.75 26.95,-4.75 48.87,-24.9 68.05,-46.29 19.45,-21.38 37.25,-44.82 60.2,-62.74 45.53,-35.92 98.93,-46.14 140.93,-44.15 42.62,1.96 75.44,15.13 95.39,27.38 20.09,12.47 28.51,22.63 27.77,23.47z"/>
   <path class="fil8" d="M11368.23 12625.73c-3.24,3.76 -29.46,-46.32 -106.06,-72.24 -37.08,-12.45 -86.6,-17.24 -134.75,1.16 -23.84,8.83 -47.04,24.88 -73.17,39.85 -25.55,14.65 -57.55,30.4 -93.7,25.13 -36.23,-5.13 -62.66,-30.91 -81.09,-54.26 -19.09,-23.87 -34.11,-48.07 -51.33,-67.64 -33.08,-39.89 -81.4,-53.56 -120.15,-52.86 -39.41,0.49 -69.91,13.8 -88.65,25.53 -18.82,12.02 -27.42,21.64 -28.97,20.23 -0.89,-0.62 5.4,-12.47 23.75,-27.65 18.24,-14.76 50.16,-31.83 93.25,-34.6 41.88,-3.21 98.07,10.49 136.66,54.99 19.17,20.98 34.83,45.37 53.01,67.55 17.86,22.11 39.62,41.92 66.89,45.64 27.05,4.17 54.21,-7.88 79.17,-21.98 25.22,-14.01 49.54,-30.51 76.97,-40.1 54.57,-19.4 108.4,-11.91 147.59,3.48 39.75,15.56 66.66,38.6 81.69,56.62 15.05,18.27 19.82,30.61 18.86,31.16z"/>
   <path class="fil8" d="M12495.17 11646.2c-0.86,4.89 -48.9,-24.58 -127.87,-7.3 -38.16,8.46 -83.13,29.92 -115.07,70.55 -15.99,19.89 -27.7,45.63 -42.5,71.98 -14.47,25.76 -33.93,55.81 -67.64,69.94 -33.71,14.28 -69.54,5.79 -97.27,-4.74 -28.55,-10.64 -53.76,-23.67 -78.54,-31.59 -48.73,-17.17 -97.15,-3.97 -130.07,16.63 -33.6,20.77 -52.98,47.94 -63.09,67.67 -10.02,20.04 -12.52,32.74 -14.57,32.32 -1.07,-0.07 -1.7,-13.48 6.31,-35.99 8.13,-22.09 26.83,-53.22 62.42,-77.84 34.3,-24.37 89.54,-41.6 145.34,-23.32 27.15,8.12 53.01,20.98 79.91,30.63 26.62,9.75 55.4,15.54 80.71,4.65 25.35,-10.38 42.54,-34.73 56.77,-59.74 14.51,-25.03 26.98,-51.74 45.61,-74.13 36.96,-44.82 87,-66.16 128.46,-73.19 42.07,-7.18 76.93,-1.27 99,6.44 22.25,7.91 32.62,16.04 32.08,17.03z"/>
   <path class="fil8" d="M11975.16 12381.39c-3.27,3.08 -22.28,-35.76 -79.95,-57.65 -27.91,-10.54 -65.46,-15.63 -102.46,-3.21 -18.29,5.88 -36.57,17.39 -57.35,28.13 -20.28,10.45 -46.06,21.86 -74.76,16.38 -28.76,-5.42 -48.73,-26.95 -62.19,-45.72 -13.98,-19.27 -24.66,-38.43 -37.03,-53.95 -23.51,-31.35 -59.39,-43.52 -88.9,-44.62 -61.68,-1.85 -90.16,33.31 -92.23,29.28 -0.93,-0.77 4.09,-9.93 18.71,-21.37 14.52,-11.09 39.91,-23.54 73.65,-24.4 32.75,-1.28 76.5,11.3 105.32,47.49 14.25,17.02 25.54,36.39 38.69,53.9 12.96,17.53 28.55,32.87 48.41,36.49 40.94,7.22 78.52,-29.84 121.26,-42.13 43.47,-13.12 85.18,-5.11 115.07,8.44 61.86,28.7 76.09,73.46 73.76,72.94z"/>
   <path class="fil8" d="M10828.31 13000.69c-3.27,3.07 -22.29,-35.77 -79.96,-57.65 -27.91,-10.54 -65.45,-15.65 -102.46,-3.22 -18.28,5.89 -36.57,17.4 -57.34,28.13 -20.28,10.45 -46.07,21.86 -74.76,16.37 -28.76,-5.42 -48.73,-26.93 -62.19,-45.71 -13.98,-19.26 -24.66,-38.43 -37.03,-53.95 -23.51,-31.35 -59.39,-43.53 -88.9,-44.61 -61.68,-1.86 -90.18,33.3 -92.24,29.27 -0.92,-0.78 4.09,-9.93 18.7,-21.37 14.54,-11.09 39.92,-23.54 73.67,-24.4 32.75,-1.3 76.5,11.3 105.3,47.5 14.27,17 25.56,36.38 38.71,53.89 12.96,17.54 28.55,32.87 48.41,36.49 40.94,7.23 78.52,-29.84 121.26,-42.13 43.47,-13.12 85.18,-5.12 115.07,8.45 61.85,28.68 76.09,73.44 73.76,72.94z"/>
   <path class="fil8" d="M11900.38 13014.66c-2.09,3.96 -32.58,-26.6 -94.2,-28.53 -29.8,-0.88 -66.95,6.52 -97.96,30.33 -15.43,11.53 -29.03,28.38 -45.22,45.28 -15.82,16.5 -36.54,35.69 -65.47,39.83 -28.95,4.24 -54.79,-9.59 -73.55,-22.99 -19.42,-13.68 -35.68,-28.33 -52.38,-38.98 -32.33,-22.02 -70.18,-21.85 -98.47,-13.26 -58.96,18.31 -74.61,60.86 -77.86,57.71 -1.12,-0.42 0.67,-10.71 10.83,-26.29 10.18,-15.23 30.19,-35.28 61.83,-47.09 30.57,-11.88 76.01,-14.22 114.91,10.65 18.96,11.45 35.88,26.09 53.96,38.39 17.9,12.37 37.58,21.8 57.53,18.74 41.07,-6.49 64.7,-53.78 101.2,-79.32 36.91,-26.57 78.94,-32.59 111.59,-29.48 67.76,6.99 95.62,44.69 93.24,44.99z"/>
   <path class="fil8" d="M11546.26 13506.77c-2.11,3.97 -32.59,-26.59 -94.21,-28.52 -29.8,-0.88 -66.95,6.51 -97.97,30.33 -15.41,11.52 -29.01,28.38 -45.21,45.28 -15.82,16.49 -36.53,35.68 -65.47,39.83 -28.96,4.24 -54.78,-9.6 -73.54,-22.99 -19.42,-13.68 -35.68,-28.35 -52.38,-38.98 -32.34,-22.02 -70.18,-21.86 -98.48,-13.27 -58.96,18.32 -74.6,60.87 -77.87,57.72 -1.11,-0.42 0.67,-10.73 10.85,-26.3 10.18,-15.22 30.18,-35.27 61.83,-47.09 30.57,-11.89 76.01,-14.22 114.91,10.64 18.98,11.45 35.87,26.11 53.95,38.41 17.91,12.37 37.59,21.8 57.54,18.74 41.06,-6.5 64.7,-53.8 101.2,-79.33 36.9,-26.57 78.93,-32.59 111.58,-29.48 67.78,6.99 95.62,44.69 93.25,44.99z"/>
   <path class="fil8" d="M10798.4 14728.31c-3.23,3.13 -22.79,-35.44 -80.76,-56.51 -28.06,-10.14 -65.68,-14.7 -102.51,-1.74 -18.19,6.14 -36.32,17.91 -56.94,28.95 -20.12,10.74 -45.75,22.52 -74.52,17.44 -28.84,-5.03 -49.11,-26.24 -62.83,-44.84 -14.25,-19.06 -25.19,-38.07 -37.79,-53.39 -23.94,-31.02 -59.97,-42.69 -89.51,-43.35 -61.7,-0.97 -89.7,34.59 -91.82,30.58 -0.95,-0.75 3.95,-9.99 18.4,-21.63 14.38,-11.3 39.57,-24.12 73.31,-25.45 32.73,-1.75 76.64,10.19 105.96,45.99 14.51,16.81 26.06,36.01 39.46,53.34 13.19,17.35 29,32.45 48.91,35.79 41.05,6.64 78.09,-30.96 120.66,-43.84 43.29,-13.75 85.11,-6.34 115.16,6.79 62.27,27.79 77.14,72.35 74.8,71.89z"/>
   <path class="fil8" d="M11673.49 14988.12c-2.15,3.95 -32.22,-27.04 -93.8,-29.83 -29.79,-1.29 -67.05,5.59 -98.39,28.97 -15.57,11.32 -29.41,27.96 -45.84,44.65 -16.03,16.27 -37.04,35.18 -66.02,38.92 -29,3.84 -54.63,-10.37 -73.23,-24.02 -19.22,-13.94 -35.27,-28.84 -51.84,-39.72 -32.02,-22.45 -69.87,-22.82 -98.28,-14.63 -59.18,17.51 -75.42,59.83 -78.63,56.64 -1.12,-0.43 0.8,-10.72 11.2,-26.14 10.39,-15.09 30.67,-34.86 62.48,-46.23 30.71,-11.46 76.19,-13.16 114.74,12.25 18.82,11.72 35.51,26.6 53.41,39.15 17.74,12.62 37.3,22.32 57.29,19.54 41.14,-5.91 65.44,-52.88 102.28,-77.91 37.27,-26.06 79.37,-31.5 111.97,-27.93 67.68,7.94 95,46.04 92.63,46.29z"/>
   <path class="fil1" d="M8789.77 11282.46c27.03,32.04 1006.05,1349.36 1006.05,1349.36l-137.83 78.61 -1004.64 -1300.59 136.41 -127.38z"/>
   <path class="fil12" d="M12611.08 12222.32c0,0 -918.26,1593.55 -980.32,1622.85 -122.24,57.74 -1531.26,-1167.54 -1665.64,-1284.77 -18.5,-24.9 -56.73,-77.43 -131.76,-181.93 0,0 -111.18,-511.92 -229.81,-472.59 -118.64,39.33 65,260.14 -12.26,454.62 -77.27,194.48 -431.09,-269.41 -445.27,-311.04l-91.24 -119.99c0,0 -95.7,273.03 -89.2,387 20.77,365.21 364.13,799.56 364.13,799.56 0,0 1395.29,1759.4 2451.55,1819.04 304.22,17.18 885.31,-864.18 1246.76,-1515.54 218.28,-393.34 116.97,-792.92 -244.79,-1058.36l-172.15 -138.85 0.01 0z"/>
   <path class="fil11" d="M9138.9 12381.39c-3.1,2.01 -41.69,-53.85 -78.49,-128.92 -36.98,-75.02 -57.7,-139.76 -54.25,-141.01 3.76,-1.44 30.07,60.51 66.73,134.8 36.44,74.35 69.41,133.01 66.01,135.13z"/>
   <path class="fil10" d="M12567.9 11779.03c-36.26,21.9 -890.2,1617.09 -890.2,1617.09l1099.13 866.4c0,0 285.96,-708.83 436.76,-1285.02 40.93,-156.41 19.84,-574.34 -37.95,-735.57 -82.1,-229.11 -205.92,-172.05 -391.35,-306.26l-216.41 -156.64 0.01 0z"/>
   <path class="fil16" d="M12929 11779.03c-0.66,0.98 -10.79,-6.12 -31.35,-16.54 -20.24,-10.42 -53.25,-23.05 -96.6,-20.41 -43.33,1.44 -94.33,22.64 -143.44,60.27 -49.31,37.66 -97.53,90.93 -143.06,155.08 -46.42,63.71 -84.79,141.38 -131.67,222.4 -46.06,81.39 -95.18,168.19 -146.84,259.48 -103.95,182.74 -218.02,383.27 -337.8,593.82 -73.07,127.81 -144.01,251.91 -210.74,368.61l-2.83 -14.51c297.74,236.77 556.86,442.82 743.69,591.4 90.55,73.16 163.5,132.08 215.78,174.33 23.66,19.65 42.62,35.38 57.21,47.48 12.87,11 19.38,16.97 18.96,17.51 -0.42,0.52 -7.75,-4.38 -21.44,-14.34 -15.16,-11.35 -34.88,-26.1 -59.52,-44.52 -53.27,-40.94 -127.58,-98.12 -219.86,-169.06 -188.08,-146.96 -448.95,-350.78 -748.7,-584.97l-7.68 -6 4.84 -8.52c66.51,-116.76 137.25,-240.95 210.07,-368.84 120.32,-210.17 234.88,-410.33 339.29,-592.74 52.3,-90.9 102.04,-177.33 148.67,-258.37 47.32,-80.05 87.17,-158.57 135.27,-222.79 47.1,-64.55 97.07,-118.11 148.63,-155.91 51.26,-37.76 105.23,-58.78 150.77,-58.86 45.58,-1.31 79.25,13.38 99.17,25.32 10.56,5.24 17.25,11.52 22.24,14.79 4.82,3.59 7.17,5.56 6.94,5.9z"/>
   <path class="fil8" d="M12600.78 13274.8c-3.27,3.07 -22.27,-35.78 -79.96,-57.66 -27.9,-10.54 -65.44,-15.64 -102.46,-3.22 -18.27,5.9 -36.55,17.41 -57.34,28.13 -20.28,10.46 -46.06,21.86 -74.76,16.38 -28.76,-5.43 -48.74,-26.93 -62.19,-45.72 -13.97,-19.26 -24.64,-38.43 -37.03,-53.95 -23.51,-31.33 -59.38,-43.53 -88.91,-44.62 -61.65,-1.84 -90.16,33.31 -92.22,29.29 -0.92,-0.77 4.09,-9.94 18.71,-21.36 14.53,-11.1 39.92,-23.55 73.66,-24.42 32.74,-1.28 76.49,11.3 105.29,47.51 14.27,17 25.57,36.37 38.71,53.89 12.95,17.54 28.55,32.86 48.41,36.47 40.95,7.23 78.53,-29.83 121.27,-42.11 43.46,-13.12 85.17,-5.12 115.06,8.45 61.86,28.68 76.1,73.44 73.76,72.94z"/>
   <path class="fil8" d="M13103.18 13068.46c-3.97,2.08 -11.87,-40.47 -61.53,-77.22 -24.06,-17.73 -58.85,-32.81 -97.8,-30.89 -19.18,0.71 -39.88,6.82 -62.76,11.54 -22.31,4.55 -50.22,8.54 -76.38,-4.54 -26.24,-13.03 -39.71,-39.16 -47.62,-60.91 -8.32,-22.34 -13.45,-43.69 -21.21,-61.99 -14.24,-36.57 -45.51,-58.03 -73.65,-67.09 -58.9,-18.53 -95.76,7.6 -96.65,3.16 -0.69,-0.99 6.59,-8.47 23.73,-15.49 16.96,-6.75 44.74,-11.86 77.47,-3.52 31.87,7.64 70.62,31.63 88.67,74.31 9.18,20.27 14.85,41.97 22.82,62.4 7.77,20.41 18.68,39.41 36.84,48.28 37.49,18.06 83.61,-7.42 128.05,-7.65 45.35,-0.84 83.38,18.18 108.53,39.37 51.89,44.4 53.6,91.37 51.48,90.24z"/>
   <path class="fil8" d="M13128.99 12409.07c-3.98,2.07 -11.88,-40.49 -61.55,-77.24 -24.06,-17.73 -58.84,-32.81 -97.8,-30.89 -19.18,0.71 -39.88,6.83 -62.74,11.53 -22.34,4.56 -50.23,8.55 -76.39,-4.52 -26.24,-13.04 -39.7,-39.17 -47.64,-60.91 -8.29,-22.35 -13.42,-43.68 -21.18,-61.99 -14.24,-36.58 -45.52,-58.03 -73.66,-67.1 -58.89,-18.52 -95.75,7.6 -96.66,3.15 -0.68,-0.98 6.6,-8.46 23.74,-15.48 16.97,-6.74 44.74,-11.86 77.46,-3.52 31.88,7.64 70.64,31.63 88.68,74.31 9.18,20.27 14.85,41.99 22.82,62.4 7.78,20.41 18.66,39.41 36.82,48.26 37.5,18.08 83.61,-7.4 128.06,-7.63 45.37,-0.84 83.4,18.18 108.53,39.37 51.9,44.4 53.62,91.37 51.5,90.26z"/>
   <path class="fil8" d="M12885.79 13924.97c-3.97,2.07 -11.86,-40.48 -61.53,-77.22 -24.07,-17.73 -58.84,-32.82 -97.8,-30.9 -19.18,0.72 -39.88,6.84 -62.76,11.54 -22.32,4.56 -50.21,8.54 -76.38,-4.53 -26.24,-13.03 -39.71,-39.16 -47.63,-60.91 -8.29,-22.34 -13.44,-43.7 -21.2,-61.99 -14.23,-36.57 -45.5,-58.03 -73.64,-67.09 -58.89,-18.54 -95.76,7.6 -96.67,3.14 -0.68,-0.98 6.61,-8.45 23.74,-15.48 16.98,-6.74 44.74,-11.85 77.46,-3.51 31.89,7.64 70.64,31.63 88.67,74.31 9.19,20.27 14.85,41.97 22.83,62.4 7.78,20.42 18.68,39.4 36.83,48.26 37.5,18.08 83.61,-7.4 128.05,-7.63 45.38,-0.84 83.39,18.17 108.54,39.35 51.89,44.41 53.59,91.39 51.48,90.26z"/>
  </g>
 </g>
</svg>
